<svg width="128" height="116" viewBox="0 0 128 116" fill="none" xmlns="http://www.w3.org/2000/svg">
<g filter="url(#filter0_d_626_478)">
<ellipse cx="78.0856" cy="30.7689" rx="12.9991" ry="28.0757" transform="rotate(45 78.0856 30.7689)" fill="#0D9488"/>
<ellipse cx="74.4282" cy="34.4269" rx="10.1556" ry="22.9032" transform="rotate(45 74.4282 34.4269)" fill="white"/>
<ellipse cx="71.4021" cy="37.7402" rx="6.29646" ry="18.4205" transform="rotate(45 71.4021 37.7402)" fill="#A5FEF7"/>
<ellipse cx="49.8241" cy="30.7789" rx="12.9991" ry="28.0757" transform="rotate(-45 49.8241 30.7789)" fill="#0D9488"/>
<ellipse cx="53.4816" cy="34.4358" rx="10.1556" ry="22.9032" transform="rotate(-45 53.4816 34.4358)" fill="white"/>
<ellipse cx="56.7951" cy="37.4626" rx="6.29646" ry="18.4205" transform="rotate(-45 56.7951 37.4626)" fill="#A5FEF6"/>
<g filter="url(#filter1_d_626_478)">
<ellipse cx="63.5975" cy="26.9057" rx="18.5158" ry="26.9057" fill="#0D9488"/>
<ellipse cx="63.5975" cy="33.5592" rx="14.4654" ry="20.2516" fill="white"/>
<ellipse cx="63.8868" cy="40.5035" rx="8.96857" ry="13.3082" fill="#A5FEF6"/>
</g>
</g>
<g filter="url(#filter2_d_626_478)">
<ellipse cx="49.8243" cy="77.0788" rx="12.9991" ry="28.0757" transform="rotate(-135 49.8243 77.0788)" fill="#0D9488"/>
<ellipse cx="53.4817" cy="73.4208" rx="10.1556" ry="22.9032" transform="rotate(-135 53.4817 73.4208)" fill="white"/>
<ellipse cx="56.508" cy="70.1075" rx="6.29646" ry="18.4205" transform="rotate(-135 56.508 70.1075)" fill="#A5FEF7"/>
<ellipse cx="78.0856" cy="77.0688" rx="12.9991" ry="28.0757" transform="rotate(135 78.0856 77.0688)" fill="#0D9488"/>
<ellipse cx="74.4281" cy="73.4118" rx="10.1556" ry="22.9032" transform="rotate(135 74.4281 73.4118)" fill="white"/>
<ellipse cx="71.1145" cy="70.3851" rx="6.29646" ry="18.4205" transform="rotate(135 71.1145 70.3851)" fill="#A5FEF6"/>
<g filter="url(#filter3_d_626_478)">
<ellipse cx="64.3124" cy="80.9429" rx="18.5158" ry="26.9057" transform="rotate(-180 64.3124 80.9429)" fill="#0D9488"/>
<ellipse cx="64.3121" cy="74.2894" rx="14.4654" ry="20.2516" transform="rotate(-180 64.3121 74.2894)" fill="white"/>
<ellipse cx="64.0229" cy="67.3451" rx="8.96857" ry="13.3082" transform="rotate(-180 64.0229 67.3451)" fill="#A5FEF6"/>
</g>
</g>
<g filter="url(#filter4_d_626_478)">
<ellipse cx="93.2304" cy="68.8783" rx="12.9991" ry="28.0757" transform="rotate(135 93.2304 68.8783)" fill="#0D9488"/>
<ellipse cx="89.5726" cy="65.2214" rx="10.1556" ry="22.9032" transform="rotate(135 89.5726 65.2214)" fill="white"/>
<ellipse cx="86.2591" cy="62.1946" rx="6.29646" ry="18.4205" transform="rotate(135 86.2591 62.1946)" fill="#A5FEF7"/>
<ellipse cx="93.2206" cy="40.6166" rx="12.9991" ry="28.0757" transform="rotate(45 93.2206 40.6166)" fill="#0D9488"/>
<ellipse cx="89.5632" cy="44.2746" rx="10.1556" ry="22.9032" transform="rotate(45 89.5632 44.2746)" fill="white"/>
<ellipse cx="86.5369" cy="47.5869" rx="6.29646" ry="18.4205" transform="rotate(45 86.5369 47.5869)" fill="#A5FEF6"/>
<g filter="url(#filter5_d_626_478)">
<ellipse cx="97.0943" cy="54.3888" rx="18.5158" ry="26.9057" transform="rotate(90 97.0943 54.3888)" fill="#0D9488"/>
<ellipse cx="90.4403" cy="54.3883" rx="14.4654" ry="20.2516" transform="rotate(90 90.4403 54.3883)" fill="white"/>
<ellipse cx="83.4967" cy="54.6785" rx="8.96857" ry="13.3082" transform="rotate(90 83.4967 54.6785)" fill="#A5FEF6"/>
</g>
</g>
<g filter="url(#filter6_d_626_478)">
<ellipse cx="34.7701" cy="39.4576" rx="12.9991" ry="28.0757" transform="rotate(-45 34.7701 39.4576)" fill="#0D9488"/>
<ellipse cx="38.4276" cy="43.1145" rx="10.1556" ry="22.9032" transform="rotate(-45 38.4276 43.1145)" fill="white"/>
<ellipse cx="41.7412" cy="46.1413" rx="6.29646" ry="18.4205" transform="rotate(-45 41.7412 46.1413)" fill="#A5FEF7"/>
<ellipse cx="34.7796" cy="67.7204" rx="12.9991" ry="28.0757" transform="rotate(-135 34.7796 67.7204)" fill="#0D9488"/>
<ellipse cx="38.4371" cy="64.0624" rx="10.1556" ry="22.9032" transform="rotate(-135 38.4371 64.0624)" fill="white"/>
<ellipse cx="41.4631" cy="60.7491" rx="6.29646" ry="18.4205" transform="rotate(-135 41.4631 60.7491)" fill="#A5FEF6"/>
<g filter="url(#filter7_d_626_478)">
<ellipse cx="30.9057" cy="53.9471" rx="18.5158" ry="26.9057" transform="rotate(-90 30.9057 53.9471)" fill="#0D9488"/>
<ellipse cx="37.5597" cy="53.9467" rx="14.4654" ry="20.2516" transform="rotate(-90 37.5597 53.9467)" fill="white"/>
<ellipse cx="44.5033" cy="53.6574" rx="8.96857" ry="13.3082" transform="rotate(-90 44.5033 53.6574)" fill="#A5FEF6"/>
</g>
</g>
<g filter="url(#filter8_d_626_478)">
<circle cx="63.5" cy="53.5" r="10.5" fill="white"/>
</g>
<defs>
<filter id="filter0_d_626_478" x="23.9417" y="0" width="80.0264" height="61.8115" filterUnits="userSpaceOnUse" color-interpolation-filters="sRGB">
<feFlood flood-opacity="0" result="BackgroundImageFix"/>
<feColorMatrix in="SourceAlpha" type="matrix" values="0 0 0 0 0 0 0 0 0 0 0 0 0 0 0 0 0 0 127 0" result="hardAlpha"/>
<feOffset dy="4"/>
<feGaussianBlur stdDeviation="2"/>
<feComposite in2="hardAlpha" operator="out"/>
<feColorMatrix type="matrix" values="0 0 0 0 0 0 0 0 0 0 0 0 0 0 0 0 0 0 0.25 0"/>
<feBlend mode="normal" in2="BackgroundImageFix" result="effect1_dropShadow_626_478"/>
<feBlend mode="normal" in="SourceGraphic" in2="effect1_dropShadow_626_478" result="shape"/>
</filter>
<filter id="filter1_d_626_478" x="41.0818" y="0" width="45.0315" height="61.8115" filterUnits="userSpaceOnUse" color-interpolation-filters="sRGB">
<feFlood flood-opacity="0" result="BackgroundImageFix"/>
<feColorMatrix in="SourceAlpha" type="matrix" values="0 0 0 0 0 0 0 0 0 0 0 0 0 0 0 0 0 0 127 0" result="hardAlpha"/>
<feOffset dy="4"/>
<feGaussianBlur stdDeviation="2"/>
<feComposite in2="hardAlpha" operator="out"/>
<feColorMatrix type="matrix" values="0 0 0 0 0 0 0 0 0 0 0 0 0 0 0 0 0 0 0.25 0"/>
<feBlend mode="normal" in2="BackgroundImageFix" result="effect1_dropShadow_626_478"/>
<feBlend mode="normal" in="SourceGraphic" in2="effect1_dropShadow_626_478" result="shape"/>
</filter>
<filter id="filter2_d_626_478" x="23.9419" y="54.0371" width="80.0261" height="61.8115" filterUnits="userSpaceOnUse" color-interpolation-filters="sRGB">
<feFlood flood-opacity="0" result="BackgroundImageFix"/>
<feColorMatrix in="SourceAlpha" type="matrix" values="0 0 0 0 0 0 0 0 0 0 0 0 0 0 0 0 0 0 127 0" result="hardAlpha"/>
<feOffset dy="4"/>
<feGaussianBlur stdDeviation="2"/>
<feComposite in2="hardAlpha" operator="out"/>
<feColorMatrix type="matrix" values="0 0 0 0 0 0 0 0 0 0 0 0 0 0 0 0 0 0 0.25 0"/>
<feBlend mode="normal" in2="BackgroundImageFix" result="effect1_dropShadow_626_478"/>
<feBlend mode="normal" in="SourceGraphic" in2="effect1_dropShadow_626_478" result="shape"/>
</filter>
<filter id="filter3_d_626_478" x="41.7966" y="54.0371" width="45.0315" height="61.8115" filterUnits="userSpaceOnUse" color-interpolation-filters="sRGB">
<feFlood flood-opacity="0" result="BackgroundImageFix"/>
<feColorMatrix in="SourceAlpha" type="matrix" values="0 0 0 0 0 0 0 0 0 0 0 0 0 0 0 0 0 0 127 0" result="hardAlpha"/>
<feOffset dy="4"/>
<feGaussianBlur stdDeviation="2"/>
<feComposite in2="hardAlpha" operator="out"/>
<feColorMatrix type="matrix" values="0 0 0 0 0 0 0 0 0 0 0 0 0 0 0 0 0 0 0.25 0"/>
<feBlend mode="normal" in2="BackgroundImageFix" result="effect1_dropShadow_626_478"/>
<feBlend mode="normal" in="SourceGraphic" in2="effect1_dropShadow_626_478" result="shape"/>
</filter>
<filter id="filter4_d_626_478" x="66.1885" y="18.7344" width="61.8115" height="80.0264" filterUnits="userSpaceOnUse" color-interpolation-filters="sRGB">
<feFlood flood-opacity="0" result="BackgroundImageFix"/>
<feColorMatrix in="SourceAlpha" type="matrix" values="0 0 0 0 0 0 0 0 0 0 0 0 0 0 0 0 0 0 127 0" result="hardAlpha"/>
<feOffset dy="4"/>
<feGaussianBlur stdDeviation="2"/>
<feComposite in2="hardAlpha" operator="out"/>
<feColorMatrix type="matrix" values="0 0 0 0 0 0 0 0 0 0 0 0 0 0 0 0 0 0 0.25 0"/>
<feBlend mode="normal" in2="BackgroundImageFix" result="effect1_dropShadow_626_478"/>
<feBlend mode="normal" in="SourceGraphic" in2="effect1_dropShadow_626_478" result="shape"/>
</filter>
<filter id="filter5_d_626_478" x="66.1885" y="35.873" width="61.8115" height="45.0312" filterUnits="userSpaceOnUse" color-interpolation-filters="sRGB">
<feFlood flood-opacity="0" result="BackgroundImageFix"/>
<feColorMatrix in="SourceAlpha" type="matrix" values="0 0 0 0 0 0 0 0 0 0 0 0 0 0 0 0 0 0 127 0" result="hardAlpha"/>
<feOffset dy="4"/>
<feGaussianBlur stdDeviation="2"/>
<feComposite in2="hardAlpha" operator="out"/>
<feColorMatrix type="matrix" values="0 0 0 0 0 0 0 0 0 0 0 0 0 0 0 0 0 0 0.25 0"/>
<feBlend mode="normal" in2="BackgroundImageFix" result="effect1_dropShadow_626_478"/>
<feBlend mode="normal" in="SourceGraphic" in2="effect1_dropShadow_626_478" result="shape"/>
</filter>
<filter id="filter6_d_626_478" x="0" y="17.5752" width="61.8115" height="80.0273" filterUnits="userSpaceOnUse" color-interpolation-filters="sRGB">
<feFlood flood-opacity="0" result="BackgroundImageFix"/>
<feColorMatrix in="SourceAlpha" type="matrix" values="0 0 0 0 0 0 0 0 0 0 0 0 0 0 0 0 0 0 127 0" result="hardAlpha"/>
<feOffset dy="4"/>
<feGaussianBlur stdDeviation="2"/>
<feComposite in2="hardAlpha" operator="out"/>
<feColorMatrix type="matrix" values="0 0 0 0 0 0 0 0 0 0 0 0 0 0 0 0 0 0 0.25 0"/>
<feBlend mode="normal" in2="BackgroundImageFix" result="effect1_dropShadow_626_478"/>
<feBlend mode="normal" in="SourceGraphic" in2="effect1_dropShadow_626_478" result="shape"/>
</filter>
<filter id="filter7_d_626_478" x="0" y="35.4316" width="61.8115" height="45.0312" filterUnits="userSpaceOnUse" color-interpolation-filters="sRGB">
<feFlood flood-opacity="0" result="BackgroundImageFix"/>
<feColorMatrix in="SourceAlpha" type="matrix" values="0 0 0 0 0 0 0 0 0 0 0 0 0 0 0 0 0 0 127 0" result="hardAlpha"/>
<feOffset dy="4"/>
<feGaussianBlur stdDeviation="2"/>
<feComposite in2="hardAlpha" operator="out"/>
<feColorMatrix type="matrix" values="0 0 0 0 0 0 0 0 0 0 0 0 0 0 0 0 0 0 0.25 0"/>
<feBlend mode="normal" in2="BackgroundImageFix" result="effect1_dropShadow_626_478"/>
<feBlend mode="normal" in="SourceGraphic" in2="effect1_dropShadow_626_478" result="shape"/>
</filter>
<filter id="filter8_d_626_478" x="49" y="43" width="29" height="29" filterUnits="userSpaceOnUse" color-interpolation-filters="sRGB">
<feFlood flood-opacity="0" result="BackgroundImageFix"/>
<feColorMatrix in="SourceAlpha" type="matrix" values="0 0 0 0 0 0 0 0 0 0 0 0 0 0 0 0 0 0 127 0" result="hardAlpha"/>
<feOffset dy="4"/>
<feGaussianBlur stdDeviation="2"/>
<feComposite in2="hardAlpha" operator="out"/>
<feColorMatrix type="matrix" values="0 0 0 0 0 0 0 0 0 0 0 0 0 0 0 0 0 0 0.25 0"/>
<feBlend mode="normal" in2="BackgroundImageFix" result="effect1_dropShadow_626_478"/>
<feBlend mode="normal" in="SourceGraphic" in2="effect1_dropShadow_626_478" result="shape"/>
</filter>
</defs>
</svg>
